<svg width="88" height="88" viewBox="0 0 88 88" fill="none" xmlns="http://www.w3.org/2000/svg">
<g clip-path="url(#clip0)">
<path d="M9.64233 39.9563C-5.85201 27.5063 4.09196 4.88121 22.6971 11.9507C28.9423 14.5995 41.8614 1.25145 51.3707 12.9383C57.1898 20.0902 61.1614 16.6452 73.5669 14.8411C88.4166 13.3656 97.4323 45.9507 70.5314 53.5976C56.8611 56.2797 54.8722 68.8217 37.1059 66.1166C19.3394 63.4114 25.1368 52.4064 9.64233 39.9563Z" fill="#E1F6FA"/>
<path d="M55.4187 36.926C55.4122 43.0396 55.3255 49.1534 55.3854 55.2666C55.4406 60.858 55.5903 66.4614 55.4998 72.0535C55.4389 75.7655 54.5631 79.619 47.8714 79.79C45.0042 79.8621 42.2438 79.8344 39.3817 79.6563C37.7834 79.5569 35.6285 79.7429 33.4629 79.56C29.3182 79.2098 27.2489 76.2951 27.1744 71.9932C27.0549 65.0605 26.8668 33.1433 27.004 26.2113C27.041 24.3231 26.9815 22.6997 27.4175 20.8462C27.8424 19.0415 29.753 17.7691 31.4166 17.7032C35.9255 17.5237 40.4436 17.471 44.9559 17.5229C46.9163 17.545 49.3322 17.5065 51.2859 17.7633C53.0726 17.9985 54.6422 18.6052 54.892 20.847C55.2292 23.879 55.3381 27.1256 55.3812 30.1206C55.4119 32.3897 55.4208 34.6575 55.4187 36.926Z" fill="#262626"/>
<path d="M38.1783 22.6164C38.1188 22.4149 38.1524 22.2408 38.2918 22.0998C38.3058 22.0846 38.3242 22.0768 38.3433 22.0763C39.9528 22.0302 41.5605 21.9832 43.169 21.9389C43.3284 21.934 43.4874 21.9509 43.6469 21.9433C43.8291 21.9352 43.9316 21.9965 43.8729 22.2401C43.832 22.4114 43.9169 22.6662 43.611 22.6262C42.0621 22.4241 40.5122 22.5806 38.9627 22.6307C38.7167 22.6001 38.4715 22.5714 38.2278 22.6465C38.2076 22.6525 38.1851 22.6402 38.1783 22.6164Z" fill="#606262"/>
<path d="M41.4121 20.1191C41.3864 20.2651 41.2897 20.3633 41.1416 20.434C41.1242 20.44 41.1068 20.446 41.0885 20.4502C41.0336 20.4645 40.9771 20.4697 40.9225 20.4641C40.7602 20.4352 40.6597 20.3185 40.6152 20.181C40.6084 20.159 40.6025 20.1352 40.5975 20.1114C40.5509 19.8538 40.623 19.5831 40.9163 19.4835C40.9364 19.4794 40.9565 19.4761 40.9757 19.4747C41.0714 19.4676 41.1537 19.4948 41.2353 19.5556C41.2603 19.5798 41.2798 19.6048 41.2965 19.6324C41.3044 19.6453 41.3114 19.6591 41.3184 19.6729C41.3289 19.6941 41.3385 19.7152 41.3463 19.7363C41.354 19.7565 41.3609 19.7776 41.3659 19.7977C41.3839 19.8973 41.4097 19.9707 41.416 20.0627C41.4157 20.08 41.4153 20.0991 41.4121 20.1191Z" fill="#606262"/>
<path d="M35.0529 22.7143C34.8703 22.787 34.69 22.746 34.5076 22.6284C34.487 22.6135 34.4682 22.5976 34.4503 22.5799C34.3959 22.5287 34.3507 22.4677 34.3193 22.4006C34.237 22.1978 34.2993 22.0015 34.4234 21.8548C34.4439 21.8306 34.4653 21.8074 34.4894 21.7869C34.7501 21.5511 35.1064 21.4437 35.4251 21.706C35.4447 21.7265 35.4616 21.7469 35.4766 21.7672C35.5519 21.8707 35.5796 21.9823 35.5677 22.1177C35.5577 22.163 35.5423 22.2037 35.5233 22.2406C35.5147 22.2595 35.5034 22.2775 35.4931 22.2946C35.477 22.3216 35.4592 22.3467 35.4405 22.37C35.4228 22.3933 35.4041 22.4157 35.3845 22.4371C35.2853 22.527 35.2199 22.6067 35.1201 22.6784C35.1008 22.6907 35.0787 22.703 35.0529 22.7143Z" fill="#606262"/>
<path d="M54.073 68.0671C53.4419 57.2376 54.2179 46.5109 53.6296 35.6786C53.4802 32.941 53.5324 31.4227 53.4791 28.7034C53.4431 26.8683 53.2948 26.3327 53.251 25.5435C53.1969 24.5884 45.3215 25.3048 44.6699 25.2941C40.2228 25.2181 34.6868 25.4547 29.8121 25.5829C29.5989 25.5885 29.4057 25.7311 29.3561 25.974C29.1617 26.9268 29.1918 28.9629 29.1684 29.7444C29.0092 35.0929 29.1419 40.2799 29.0064 45.628C28.8355 52.3409 29.6349 56.8898 29.4961 63.7272C29.4564 65.699 29.4868 67.7634 29.6511 70.4813C29.6872 71.0738 30.9815 71.084 31.2439 71.073C38.2076 70.7784 46.873 71.5703 53.8853 70.8188C54.0029 70.8067 54.091 70.6856 54.0875 70.548C54.0615 69.5971 54.1329 69.7561 54.0769 68.8064L54.073 68.0671Z" fill="white"/>
<path d="M43.5441 75.7011C43.5539 76.1965 43.4041 76.7078 43.0862 77.1637C42.74 77.6618 42.2523 77.9148 41.6454 77.8996C40.6391 77.8753 39.8129 77.5032 39.2797 76.6093C39.0852 76.2821 38.9696 75.9283 38.9857 75.5445C38.9945 75.3371 39.0515 75.1344 39.1454 74.9515C39.4175 74.4209 39.7606 73.941 40.2637 73.6027C40.6458 73.3456 41.0727 73.2606 41.5253 73.341C42.5294 73.5191 43.3438 74.2004 43.5216 75.2437C43.5444 75.3761 43.5335 75.5079 43.5441 75.7011Z" fill="#606262"/>
<g opacity="0.899994">
<g opacity="0.899994">
<g opacity="0.899994">
<g opacity="0.899994">
<path opacity="0.899994" d="M81.5573 52.2952L79.5796 52.3" stroke="#3B5648" stroke-width="0.0033" stroke-miterlimit="10"/>
</g>
<g opacity="0.899994">
<path opacity="0.899994" d="M75.7212 39.9748L77.4175 38.9563" stroke="#3B5648" stroke-width="0.0033" stroke-miterlimit="10"/>
</g>
<g opacity="0.899994">
<path opacity="0.899994" d="M49.9385 62.2145L51.6352 61.1966" stroke="#3B5648" stroke-width="0.0033" stroke-miterlimit="10"/>
</g>
<g opacity="0.899994">
<path opacity="0.899994" d="M45.3246 49.6322L47.3031 49.6055" stroke="#3B5648" stroke-width="0.0033" stroke-miterlimit="10"/>
</g>
<g opacity="0.899994">
<path opacity="0.899994" d="M50.3374 37.9699L51.8664 39.2258" stroke="#3B5648" stroke-width="0.0033" stroke-miterlimit="10"/>
</g>
<g opacity="0.899994">
<path opacity="0.899994" d="M72.8437 61.0065L74.3717 62.2622" stroke="#3B5648" stroke-width="0.0033" stroke-miterlimit="10"/>
</g>
</g>
</g>
</g>
<path d="M64.1249 31.9007L64.2362 33.8808" stroke="#3B5648" stroke-width="0.0033" stroke-miterlimit="10"/>
<path d="M48.0692 46.8623C47.4177 45.7226 46.1444 45.0223 44.7675 45.0223H34.2701C34.0776 45.0223 33.9147 45.1734 33.9147 45.3656C33.9147 45.448 33.9591 45.5304 34.0184 45.599L36.2985 47.7274C36.5058 47.9197 36.7723 48.0295 37.0536 48.0158H44.4417C44.9747 48.0158 45.4041 48.4003 45.4041 48.8946C45.4041 49.3889 44.9895 49.7871 44.4565 49.7871H39.3781C39.1856 49.7871 39.0228 49.9382 39.0228 50.1304C39.0228 50.2128 39.0672 50.2952 39.1264 50.3639L41.4065 52.4922C41.6138 52.6845 41.8803 52.7806 42.1764 52.7806H44.4861C47.4769 52.7806 49.7422 49.8146 48.0692 46.8623Z" fill="#EB1700"/>
</g>
<defs>
<clipPath id="clip0">
<rect width="88" height="88" fill="white"/>
</clipPath>
</defs>
</svg>
