<svg width="154" height="154" viewBox="0 0 154 154" fill="none" xmlns="http://www.w3.org/2000/svg">
<path fill-rule="evenodd" clip-rule="evenodd" d="M148.783 74.0519C155.682 48.406 148.83 0.811225 92.0882 19.725C65.7805 28.4943 55.5325 -6.51025 24.5144 13.0206C6.42959 31.376 36.124 59.7743 16.7758 64.6019C-10.4729 72.599 6.84151 114.127 32.8717 129.847C63.2004 148.165 91.8675 156.915 106.018 143.523C114.497 135.493 102.965 119.144 119.397 107.528C131.681 98.8429 144.429 90.2322 148.783 74.0519Z" fill="#E2F3F7"/>
<path fill-rule="evenodd" clip-rule="evenodd" d="M21.2553 31.3797C21.2243 33.5203 19.7696 111.93 20.135 122.867C20.1609 123.598 21.4207 123.577 22.1429 123.638C27.927 124.115 53.5677 123.834 79.3204 123.837C106.259 123.843 132.158 123.665 132.746 122.853C133.971 121.157 131.498 32.3448 131.498 32.3448L21.257 31.3797H21.2553Z" fill="#FF431E"/>
<path fill-rule="evenodd" clip-rule="evenodd" d="M28.9732 67.635C28.9732 67.635 27.8753 123.83 28.6819 123.83C29.8487 123.83 54.2209 124.083 55.4912 123.83C56.1392 123.701 55.7273 66.5681 55.7273 66.5681L28.9732 67.635Z" fill="#3B646E"/>
<path fill-rule="evenodd" clip-rule="evenodd" d="M32.1704 74.6608C31.7739 80.3329 32.2565 94.1279 32.3013 94.8586C32.3444 95.5911 52.7422 95.031 52.7422 95.031L52.8559 72.3323C52.8559 72.3323 38.8231 71.9308 33.5423 72.0807C32.3082 72.1152 32.3375 72.2531 32.1704 74.6608ZM31.9618 97.9179C31.9618 97.9179 31.219 117.19 31.8843 117.55C32.5495 117.912 52.3699 117.719 52.3699 117.719L52.8611 98.0454L31.9618 97.9179Z" fill="#FDEEED"/>
<path fill-rule="evenodd" clip-rule="evenodd" d="M61.077 67.487C61.0684 68.0644 60.8477 78.5295 60.7409 89.0257C60.6306 99.8597 60.6444 110.73 61.0442 111.176C61.432 111.607 77.1211 111.306 93.0068 111.261C109.315 111.218 125.831 111.424 126.215 111.059C126.617 110.676 126.253 98.6671 126.221 87.2247C126.191 77.0887 126.514 67.3388 126.514 67.3388C126.514 67.3388 74.1843 66.1289 70.3253 66.851C66.4647 67.5697 61.077 67.487 61.077 67.487Z" fill="white"/>
<path fill-rule="evenodd" clip-rule="evenodd" d="M64.6118 68.4051C64.0034 69.4271 63.6225 107.791 64.1206 108.411C64.617 109.032 121.92 109.211 122.675 108.225C123.427 107.241 123.232 67.5692 122.684 67.2279C122.137 66.8849 65.2219 67.3744 64.6118 68.4033" fill="#FDEEED"/>
<path fill-rule="evenodd" clip-rule="evenodd" d="M70.0478 104.249L72.1453 104.284L72.1109 108.748L74.2066 108.782L74.2411 104.318L82.2796 104.446L82.1762 108.811L84.0944 108.791L84.1496 104.477L86.4729 104.511L86.1351 101.972L70.0909 101.529L70.0478 104.249ZM89.7993 101.845L87.9051 108.891L89.5063 108.918L91.3642 101.679L89.7993 101.845ZM65.5632 101.498L67.1868 108.658L68.7414 108.62L67.1299 101.042L65.5632 101.498ZM117.238 104.297L115.164 104.263L115.088 108.67L113.017 108.635L113.093 104.23L105.151 104.103L104.985 108.789L103.136 108.761L103.305 104.073L101.007 104.039L101.419 101.564L117.275 101.633L117.238 104.297ZM98.8339 101.51L100.781 108.847L99.0959 108.87L97.2138 101.588L98.8339 101.51ZM121.312 101.984L119.44 108.611L117.846 108.587L119.78 101.502L121.312 101.984Z" fill="#F0C4C1"/>
<path fill-rule="evenodd" clip-rule="evenodd" d="M19.4334 29.2303C18.5165 29.4285 18.7957 33.8269 19.3972 34.4991C19.9952 35.1712 132.236 34.5042 132.797 33.9234C133.361 33.3391 133.261 29.7301 133.097 28.9476C132.934 28.1686 20.0039 29.1079 19.4334 29.232" fill="#FF5E3E"/>
<path fill-rule="evenodd" clip-rule="evenodd" d="M21.1982 34.625C34.6882 35.0473 120.193 34.5354 131.544 34.027L131.498 32.3431L21.2551 31.3797C21.2534 31.6141 21.231 32.7585 21.1982 34.625Z" fill="#DA260D"/>
<path fill-rule="evenodd" clip-rule="evenodd" d="M50.6498 93.6617C50.6498 93.6617 50.2206 100.883 50.4774 101.397C50.7359 101.914 54.6052 101.742 54.6052 101.742C54.6052 101.742 54.6052 93.4893 54.4329 93.4893C54.2605 93.4893 50.6498 93.6617 50.6498 93.6617Z" fill="#C7C6B5"/>
<path fill-rule="evenodd" clip-rule="evenodd" d="M64.4053 67.0086L64.4914 84.261L123.039 85.2348L122.522 63.3117L64.4053 67.0086Z" fill="#F0C4C1"/>
<path fill-rule="evenodd" clip-rule="evenodd" d="M92.8604 67.6973V110.509L95.699 109.996L95.9575 67.6973H92.8604Z" fill="white"/>
<path fill-rule="evenodd" clip-rule="evenodd" d="M14.7146 62.3056L14.768 65.3062C14.8059 67.2607 15.9883 69.1083 17.8566 69.6891C18.3909 69.8563 18.9855 69.9304 19.6404 69.8563C21.2864 69.6649 23.9423 67.4537 23.9423 67.4537C23.9423 67.4537 25.2642 70.0079 27.441 70.0424C29.6213 70.0769 32.1186 67.2986 32.1186 67.2986C32.1186 67.2986 33.9697 70.7077 36.4205 70.7456C38.8713 70.7835 42.4649 67.4623 42.4649 67.4623C42.4649 67.4623 43.2404 70.2889 45.6861 70.6077C48.1335 70.9283 50.3551 68.1483 50.3551 68.1483C50.3551 68.1483 52.1648 71.0524 54.5432 70.9921C56.6218 70.9386 59.6276 67.4485 59.6276 67.4485C59.6276 67.4485 62.0302 70.5819 63.6641 70.6077C65.298 70.6336 68.3382 67.8656 68.3382 67.8656C68.3382 67.8656 69.1017 71.2558 71.8283 71.0179C74.5584 70.7783 77.3229 68.0069 77.3229 68.0069C77.3229 68.0069 79.7238 71.4229 81.3611 71.1661C82.9984 70.9111 86.311 68.1483 86.311 68.1483C86.311 68.1483 89.9442 71.304 92.2571 71.0558C94.1461 70.8525 95.6662 69.1841 96.5056 68.0276C97.2605 68.8721 98.7134 70.0907 100.749 69.8545C102.395 69.665 105.051 67.4537 105.051 67.4537C105.051 67.4537 106.373 70.0079 108.551 70.0424C110.731 70.0769 113.227 67.2986 113.227 67.2986C113.227 67.2986 115.078 70.7077 117.529 70.7456C119.98 70.7835 123.575 67.4623 123.575 67.4623C123.575 67.4623 124.349 70.2889 126.795 70.6077C129.242 70.9283 131.464 68.1483 131.464 68.1483C131.464 68.1483 132.829 70.7801 135.209 70.7197C137.287 70.668 138.632 69.453 138.504 67.1693C138.423 65.7285 137.468 59.853 137.468 59.853L14.7146 62.3056Z" fill="#74A3A5"/>
<path fill-rule="evenodd" clip-rule="evenodd" d="M17.8325 45.0033C17.4292 45.7444 14.1149 62.5659 14.9577 63.0916C15.7971 63.6172 22.1741 63.0657 32.6858 62.9726C51.1446 62.8124 78.0796 62.7624 86.7006 62.9623C101.79 63.3122 137.255 63.1157 137.598 62.316C137.942 61.5128 135.409 44.9309 134.749 44.4432C134.087 43.9537 116.614 44.2208 116.614 44.2208L43.6887 44.7706C43.6887 44.7706 18.2358 44.2605 17.8325 45.0033Z" fill="#74A3A5"/>
<path fill-rule="evenodd" clip-rule="evenodd" d="M14.8213 62.3038C14.8196 62.7468 14.8575 63.0312 14.9558 63.0915C15.7986 63.6171 22.1738 63.0656 32.6855 62.9743C51.1444 62.8105 78.0794 62.7623 86.7004 62.9622C101.788 63.3104 137.256 63.1156 137.596 62.3142C137.672 62.1401 137.61 61.2077 137.458 59.853L14.8231 62.3038H14.8213Z" fill="#528C8F"/>
</svg>
