<svg width="154" height="154" viewBox="0 0 154 154" fill="none" xmlns="http://www.w3.org/2000/svg">
<g clip-path="url(#clip0)">
<g clip-path="url(#clip1)">
<path fill-rule="evenodd" clip-rule="evenodd" d="M106.248 143.155C138.066 135.225 148.636 111.208 151.296 92.3844C153.707 75.3197 150.207 65.2148 136.385 63.6663C122.564 62.1179 126.018 52.6654 126.884 44.4082C127.746 36.1528 129.702 27.7208 123.262 17.469C115.489 5.08321 94.5155 0.274244 78.5335 22.462C62.5533 44.6517 49.908 42.4396 34.9986 39.9431C27.2562 38.6474 11.4056 33.4518 3.38975 48.6836C-12.7165 79.2736 33.8035 126.097 33.8035 126.097C33.8035 126.097 58.778 154.986 106.248 143.155Z" fill="#E2F3F7"/>
<path fill-rule="evenodd" clip-rule="evenodd" d="M40.1857 32.7928C40.0506 33.0652 33.4755 62.75 34.0825 63.0985C35.0115 63.6359 38.3204 64.6238 42.0659 65.3855C46.1464 66.2121 50.4546 66.6661 50.6655 66.4419C51.069 66.0119 57.6922 35.8433 57.6922 35.8433L40.1857 32.7928Z" fill="#FF3008"/>
<path fill-rule="evenodd" clip-rule="evenodd" d="M37.0286 57.5404C37.2988 57.7442 48.926 60.1035 49.2202 59.7366C49.5163 59.3715 52.2866 43.7423 52.2866 43.7423C52.2866 43.7423 40.0691 42.1151 40.0654 42.3708C40.0599 42.6247 36.7566 57.3365 37.0286 57.5404Z" fill="#FF4F2D"/>
<path fill-rule="evenodd" clip-rule="evenodd" d="M40.5078 40.0597C40.4356 40.5508 38.598 44.2667 40.1618 45.0266C41.7273 45.7846 49.4239 47.0412 50.3288 46.9744C51.2337 46.9059 51.8389 47.0115 52.2238 45.8384C52.6069 44.6652 53.1176 42.5654 53.1176 42.5654L40.506 40.0597H40.5078Z" fill="#FF5E3E"/>
<path fill-rule="evenodd" clip-rule="evenodd" d="M39.9636 48.9162C40.1246 49.5297 39.9581 49.8818 40.3208 50.4397C40.6853 50.9975 40.9019 51.333 41.1776 51.3904C41.4515 51.446 43.228 51.624 44.2329 51.8315C45.2396 52.0428 46.065 52.2115 46.0613 52.6933C46.0594 53.1752 46.0021 53.4532 45.2507 53.3976C44.5012 53.3364 42.9634 52.9194 42.671 52.9565C42.3786 52.9917 41.3904 52.6896 41.7531 53.2475C42.1158 53.8072 42.8968 55.1786 43.191 55.212C43.6796 55.2676 45.4617 55.6197 46.1186 55.6994C47.2123 55.831 48.4929 54.2131 48.604 53.3198C48.715 52.4302 48.1783 50.7214 47.1901 50.4193C46.2038 50.1172 43.2762 49.5074 42.634 49.374C41.9956 49.2406 39.9636 48.9162 39.9636 48.9162Z" fill="white"/>
<path fill-rule="evenodd" clip-rule="evenodd" d="M40.2098 31.6841C39.9803 31.9158 39.3271 33.6616 39.6842 34.9089C39.897 35.6539 40.5651 36.0264 41.6588 36.3341C44.5697 37.1477 54.7127 38.6637 56.3024 39.1085C57.8902 39.5533 59.019 37.27 59.2615 36.3841L59.502 35.502C59.502 35.502 40.5743 31.3116 40.2098 31.6841Z" fill="#FF4F2D"/>
<path d="M96.134 49.6782C96.134 49.6782 98.7156 49.4429 99.4984 51.5594C100.279 53.6722 102.94 59.0783 102.94 59.0783" stroke="#C7C6B5" stroke-width="0.4"/>
<path fill-rule="evenodd" clip-rule="evenodd" d="M94.6482 44.8223C95.2737 43.9086 96.6025 46.2309 96.682 47.7988C96.7616 49.3648 96.5636 50.2656 95.5846 51.4814C94.8555 52.3858 94.726 52.3024 94.4928 52.3413C93.5712 52.4951 94.0209 45.736 94.6482 44.8223Z" fill="#C7C6B5"/>
<path fill-rule="evenodd" clip-rule="evenodd" d="M108.518 57.6938C108.518 57.6938 109.96 58.4444 110.291 60.9316C110.708 64.0656 109.038 65.6317 109.038 65.6317L108.52 57.6938H108.518Z" fill="#FDF88D"/>
<path fill-rule="evenodd" clip-rule="evenodd" d="M87.3273 103.836C86.9313 103.28 86.3724 102.554 86.0819 102.758C85.7895 102.961 85.238 103.999 85.1881 104.422C85.1399 104.841 86.0874 104.483 86.5001 104.322C86.9128 104.162 87.3273 103.836 87.3273 103.836ZM97.7461 110.328C97.8256 110.834 97.7701 111.296 97.2742 111.496C96.967 111.618 93.7507 111.839 91.2968 111.789C88.843 111.733 81.7867 111.618 81.0335 111.566C80.136 111.505 79.17 111.45 78.9572 111.142C78.6 110.632 79.3384 108.501 79.3384 108.501C79.3384 108.501 84.681 109.205 87.7881 109.355C90.8934 109.507 95.1775 109.978 96.2027 109.874C97.2279 109.771 97.4352 109.689 97.4352 109.689C97.4352 109.689 97.6757 109.865 97.7479 110.328H97.7461ZM88.4932 104.151C88.4932 104.151 88.4192 104.648 87.9343 104.961L88.4932 104.151ZM89.5739 104.754C89.5739 104.754 89.4851 105.484 89.1298 105.745L89.5739 104.754ZM90.6084 105.389C90.6084 105.389 90.5714 106.068 90.242 106.52L90.6084 105.389ZM91.6854 106.132C91.6854 106.132 91.6503 106.809 91.319 107.263L91.6854 106.132ZM92.7088 106.976C92.7088 106.976 92.7847 107.356 92.4571 107.81L92.7088 106.976Z" fill="#9CD9E2"/>
<path fill-rule="evenodd" clip-rule="evenodd" d="M26.1324 94.5214C25.1682 94.5214 19.7109 93.8783 19.0706 95.8076C18.4266 97.7351 19.0706 102.237 20.3549 103.202C21.6392 104.166 26.1324 94.5214 26.1324 94.5214Z" fill="white"/>
<path fill-rule="evenodd" clip-rule="evenodd" d="M115.345 95.4467C113.078 98.69 109.301 105.553 105.948 109.076C102.469 112.736 97.4796 117.273 92.4572 117.436C88.7875 117.555 80.2934 117.542 74.7842 117.336C72.7578 117.26 63.5827 116.849 60.5459 114.197C57.5109 111.547 67.2042 101.529 57.8348 95.3985C48.6559 89.3937 43.7334 88.1445 43.7334 88.1445L49.8903 85.0624L78.4058 87.9833C78.4058 87.9833 70.9979 97.1073 75.3264 103.073C78.1707 106.991 80.5117 106.48 84.7236 107.454C88.9374 108.427 92.8254 108.752 96.0676 105.833C99.3062 102.912 104.974 94.7961 105.948 91.2285" fill="#FF431E"/>
<path fill-rule="evenodd" clip-rule="evenodd" d="M48.998 106.32L39.9302 104.689L40.0875 104.127L49.8104 105.261L48.998 106.32Z" fill="#D2EEF2"/>
<path fill-rule="evenodd" clip-rule="evenodd" d="M47.6213 86.3597C47.6213 86.3597 47.2549 82.1378 48.2283 80.8368C49.1998 79.5395 50.3768 78.8945 52.3199 78.8945C54.263 78.8945 66.8802 79.1002 68.6549 78.8648C71.342 78.5072 77.2712 79.8694 78.4075 80.3568C79.54 80.8442 80.5134 85.7111 80.1877 86.3597C79.8639 87.0084 78.4056 87.9851 78.4056 87.9851L47.6213 86.3597Z" fill="#325847"/>
<path fill-rule="evenodd" clip-rule="evenodd" d="M47.6213 86.3597C47.6213 86.3597 47.2549 82.1378 48.2283 80.8368C49.1998 79.5395 50.3768 78.8945 52.3199 78.8945C54.263 78.8945 66.8802 79.1002 68.6549 78.8648C71.342 78.5072 77.2712 79.8694 78.4075 80.3568C79.54 80.8442 80.5134 85.7111 80.1877 86.3597C79.8639 87.0084 78.4056 87.9851 78.4056 87.9851L47.6213 86.3597Z" fill="#DA260D"/>
<path fill-rule="evenodd" clip-rule="evenodd" d="M51.9239 65.2203C50.5545 67.0606 48.9371 70.5931 49.3924 72.6651C49.8476 74.7371 51.2929 78.3771 53.125 78.5161C75.8759 80.2286 82.3418 77.2058 83.2542 78.3567C83.5466 78.7274 82.2123 81.4036 83.3837 86.1815C85.9671 96.6973 85.6118 102.876 85.6525 104.04C85.6784 104.689 91.0377 105.304 90.266 103.957C89.4703 102.556 90.7101 84.5153 90.8138 80.6567C91.0044 73.3416 89.5498 71.0861 86.5852 70.1631C84.4367 69.4978 69.5303 68.6248 66.3325 68.1652C63.1384 67.7037 51.9239 65.2184 51.9239 65.2184V65.2203ZM68.9326 28.9061C68.0869 29.9532 68.1146 31.6527 68.0739 32.4422C67.9536 34.8849 69.4785 37.0292 69.4785 37.0292C69.4785 37.0292 69.4674 36.8068 67.6131 36.3713C65.7588 35.9376 62.1317 34.7626 62.1317 34.7626C62.1317 34.7626 63.231 32.0159 63.6233 30.9892C65.0778 27.1862 63.849 23.587 63.9138 23.2441C63.9767 22.905 66.8451 24.5933 66.8451 24.5933L68.0702 28.8097L68.9326 28.9042V28.9061Z" fill="#C6A581"/>
<path fill-rule="evenodd" clip-rule="evenodd" d="M73.6035 17.8137C74.068 18.3085 74.6972 20.2656 74.3271 22.3821C74.0032 24.2503 75.1895 25.5643 75.3282 25.9776C75.4818 26.4298 74.3419 26.3483 74.3419 26.3483C74.3419 26.3483 73.9903 28.0404 73.7775 28.7446C73.5647 29.4526 73.2982 30.3496 72.2267 30.3459C71.4069 30.3422 68.3109 30.3366 67.3782 28.2424C66.4436 26.1481 65.7441 22.8214 66.8563 21.2442C67.9667 19.6689 72.9003 17.0631 73.6035 17.8137Z" fill="#C6A581"/>
<path d="M66.4121 22.9938L73.807 23.472M74.9044 23.7592C74.7749 24.7322 74.4399 25.4902 74.1512 25.455C73.8625 25.4161 73.733 24.5951 73.8607 23.6202C73.9884 22.6491 74.3252 21.8892 74.6139 21.9281C74.9025 21.9652 75.0321 22.7862 74.9044 23.7592V23.7592Z" stroke="#FF0000" stroke-width="0.25"/>
<path fill-rule="evenodd" clip-rule="evenodd" d="M68.5753 34.8739C68.5753 34.8739 70.3648 38.3156 71.6288 41.533C73.0352 45.1266 72.4671 48.0586 70.5443 49.2132C67.787 53.4814 64.8223 63.8545 64.8223 63.8545L51.265 65.1111L50.9504 61.5601C50.9504 61.5601 52.1515 47.7212 55.3326 41.09C57.7495 36.049 62.1612 32.7871 62.8404 32.7315C64.5374 32.6018 68.5772 34.8739 68.5772 34.8739" fill="#EDB9B6"/>
<path fill-rule="evenodd" clip-rule="evenodd" d="M61.4322 24.847C57.9291 26.9209 58.5879 14.9094 47.1865 18.8348C42.0234 20.614 37.1934 20.7715 34.7173 17.6913C30.9773 13.0357 30.2223 26.0813 35.526 30.4626C40.1062 34.2471 44.22 31.482 49.335 28.9206C54.4518 26.3593 56.0618 30.1735 59.6612 31.1131C65.5146 32.644 69.9319 27.5103 67.5595 21.0088C66.8451 19.0498 67.6872 21.1459 61.4341 24.847" fill="#22464C"/>
<path fill-rule="evenodd" clip-rule="evenodd" d="M82.6565 69.3923C82.6565 69.3923 73.3 68.8919 67.5077 68.0078C66.2974 67.8244 65.2703 67.3629 65.2703 67.3629L65.1352 62.8129L52.0979 62.0827L49.1796 68.1302C48.0378 74.0979 48.5004 80.7254 56.3228 81.35C62.983 81.8838 79.1607 80.6179 79.8473 80.579C80.6615 80.0286 82.0902 75.0505 82.5491 73.0471C82.8286 69.4701 82.6565 69.3923 82.6565 69.3923Z" fill="#528C8F"/>
<path fill-rule="evenodd" clip-rule="evenodd" d="M71.2882 54.4579C73.6772 54.9471 79.2456 56.6707 80.256 56.9636C83.2503 57.8309 92.5735 59.5879 93.162 59.51C93.5617 59.4544 94.387 59.9493 94.4851 61.5635C94.5166 62.101 94.5832 63.2445 93.8282 63.1074C93.2008 62.9962 91.7018 63.0462 91.2059 63.0203C90.09 62.9647 90.3731 63.1166 86.7719 62.8887C82.288 62.6033 75.4723 62.29 68.9934 60.9316C68.5474 60.8389 67.7424 60.0976 67.2724 58.9485C66.8523 57.918 67.5981 58.0959 67.9941 56.7708C68.6307 54.6432 71.2882 54.4579 71.2882 54.4579Z" fill="#C6A581"/>
<path fill-rule="evenodd" clip-rule="evenodd" d="M109.368 109.144C108.701 110.149 108.452 115.746 110.454 119.256C112.456 122.764 116.294 126.276 123.136 126.191C130.07 126.106 133.399 122.764 135.651 118.17C138.399 112.564 136.484 106.47 133.649 102.795C130.812 99.1158 125.556 97.1105 118.965 99.1158C111.244 101.464 109.369 109.144 109.369 109.144" fill="#22464C"/>
<path fill-rule="evenodd" clip-rule="evenodd" d="M116.7 109.558C116.45 110.373 116.011 111.817 116.761 113.95C117.512 116.078 119.888 118.085 123.086 118.022C126.276 117.961 128.342 116.143 128.906 113.572C129.469 111.002 128.406 107.74 126.717 106.424C125.025 105.108 122.146 104.669 119.768 105.923C117.388 107.176 116.7 109.558 116.7 109.558Z" fill="#E7E5D5"/>
<path fill-rule="evenodd" clip-rule="evenodd" d="M25.7937 108.707C25.1275 109.71 24.8759 115.309 26.8763 118.817C28.8805 122.327 32.7186 125.838 39.5602 125.754C46.4943 125.669 49.8235 122.327 52.0756 117.731C54.8237 112.127 52.9102 106.033 50.0733 102.356C47.2364 98.6789 41.9807 96.6736 35.3871 98.6789C27.6684 101.027 25.7937 108.705 25.7937 108.705" fill="#22464C"/>
<path fill-rule="evenodd" clip-rule="evenodd" d="M33.3219 108.723C33.0721 109.539 32.6335 110.981 33.3867 113.112C34.1362 115.243 36.5105 117.249 39.7064 117.186C42.8986 117.124 44.9657 115.306 45.5302 112.736C46.0927 110.165 45.0287 106.903 43.3372 105.587C41.6495 104.272 38.7682 103.834 36.3883 105.087C34.0103 106.34 33.3219 108.723 33.3219 108.723Z" fill="#E7E5D5"/>
<path fill-rule="evenodd" clip-rule="evenodd" d="M101.323 67.0941C101.323 67.0941 99.4447 67.3036 99.861 70.0187C100.279 72.7338 103.505 82.1451 103.199 90.1756C102.885 98.4285 100.488 100.725 97.3591 104.483C94.2316 108.246 92.9788 109.08 92.9788 109.08C92.9788 109.08 97.15 109.914 101.112 107.412C105.076 104.902 124.681 95.6058 124.681 95.6058C124.681 95.6058 127.392 87.0434 116.026 80.149C107.391 74.9115 103.616 67.5111 103.409 66.4696C102.158 66.8866 101.323 67.0941 101.323 67.0941Z" fill="#FF431E"/>
<path fill-rule="evenodd" clip-rule="evenodd" d="M97.8811 63.2297C98.0384 63.1778 99.1321 63.2816 99.7058 63.8042C100.279 64.3268 100.957 65.424 101.321 67.4608C102.117 67.4056 102.862 67.0506 103.407 66.4675C103.407 66.4675 103.253 66.4156 104.295 66.4675C105.337 66.5193 108.44 66.2858 108.935 65.7354C109.432 65.1886 109.562 59.9919 108.102 57.0692C106.901 56.6503 104.66 56.7022 102.313 58.5296C99.9667 60.3589 99.4448 61.0872 98.8193 61.2967C98.192 61.5079 97.2038 61.6636 97.2038 61.6636L97.8811 63.2297ZM106.929 118.522C106.929 118.522 103.172 108.104 107.824 101.058C112.012 94.7178 120.232 92.214 126.493 94.2304C132.751 96.245 137.335 101.953 136.888 103.521C136.44 105.087 134.204 105.76 131.521 105.76C128.838 105.76 124.681 103.807 120.371 106.153C116.718 108.14 117.886 110.686 116.318 113.822C114.755 116.954 111.847 119.641 106.929 118.522ZM18.1343 105.669C17.2275 104.526 25.507 91.2206 36.8492 88.8742C42.6044 87.6863 47.8046 87.3582 52.4014 89.1189C61.1731 92.4734 65.3443 102.5 64.9261 108.974C64.8028 110.863 64.5941 112.745 64.3006 114.615C64.3006 114.615 47.4048 115.032 31.1383 110.645C27.204 109.587 19.0411 106.813 18.1343 105.669Z" fill="#FF431E"/>
<path d="M40.8371 105.216C40.8371 105.216 45.5283 106 49.9086 106.155M39.897 109.134C39.897 109.134 44.59 109.916 48.9703 110.073L39.897 109.134ZM40.367 107.252C40.367 107.252 45.0582 108.036 49.4385 108.192L40.367 107.252Z" stroke="#EDB9B6" stroke-width="0.5"/>
<path fill-rule="evenodd" clip-rule="evenodd" d="M64.3338 28.1297C65.9715 27.4884 63.6509 26.5395 62.9514 25.5146C62.6368 25.0569 61.878 23.9893 62.8459 23.3462C63.8082 22.7068 64.0543 22.7624 64.8519 21.5226C65.6495 20.2845 65.755 16.6854 67.6648 15.7086C71.1864 13.9072 75.2337 15.4825 75.1226 17.7918C75.0745 18.7666 75.2115 21.2501 71.2364 22.0674C69.7097 22.3806 68.2921 20.9666 68.616 25.0828C68.8418 27.9814 66.2843 29.9923 65.0277 30.2351" fill="#22464C"/>
<path fill-rule="evenodd" clip-rule="evenodd" d="M75.876 18.3199C75.876 17.1708 74.7286 14.2463 72.2507 12.9786C69.4785 11.5608 67.045 10.6564 62.8664 12.4671C58.5694 14.326 57.5756 18.5386 57.9735 20.9628C58.3732 23.3851 60.0813 26.9379 60.0813 26.9379C60.0813 26.9379 62.9682 27.6199 64.0045 27.7089C65.0408 27.8015 65.9865 27.8164 66.9099 26.7451C67.8352 25.6739 67.7575 25.0123 67.6613 23.2905C67.5632 21.5706 67.9814 20.7885 68.816 20.0583C69.5155 19.443 70.2817 19.1706 71.9435 19.0483C73.6034 18.9278 75.876 19.0297 75.876 18.3199Z" fill="#E7E5D5"/>
<path fill-rule="evenodd" clip-rule="evenodd" d="M107.824 101.059C107.101 102.167 106.549 103.379 106.187 104.652C113.361 100.975 124.683 95.6079 124.683 95.6079C124.683 95.6079 124.89 94.9462 124.95 93.8435C118.937 92.65 111.675 95.2279 107.824 101.059ZM64.3007 114.616C64.3007 114.616 64.7282 112.049 64.9262 108.974C65.3444 102.5 61.1732 92.4757 52.4015 89.1193C49.8532 88.1426 47.1181 87.8109 44.2034 87.9073L43.7334 88.1445C43.7334 88.1445 48.6559 89.3918 57.8348 95.3984C67.2042 101.529 57.5109 111.547 60.5477 114.197C60.7106 114.341 60.8956 114.475 61.0936 114.605C63.1182 114.645 64.3007 114.616 64.3007 114.616ZM75.1728 102.788C75.1728 102.788 76.0759 111.443 84.7884 110.941C93.5009 110.438 94.8814 106.706 94.8814 106.706C94.8814 106.706 88.5525 108.04 81.4 106.8C77.6748 106.157 76.7365 104.697 75.1728 102.788Z" fill="#DA260D"/>
<path fill-rule="evenodd" clip-rule="evenodd" d="M99.5263 108.824C99.5911 109.235 99.5448 109.613 99.134 109.775C98.8786 109.876 96.2193 110.056 94.1911 110.015C92.1629 109.969 86.3262 109.876 85.7044 109.832C84.9623 109.782 84.1628 109.739 83.987 109.487C83.6909 109.068 84.3016 107.332 84.3016 107.332C84.3016 107.332 88.7208 107.906 91.2894 108.031C93.858 108.155 97.4 108.538 98.2476 108.453C99.0933 108.368 99.2654 108.305 99.2654 108.305C99.2654 108.305 99.4652 108.444 99.5245 108.824" fill="#E7E5D5"/>
<path fill-rule="evenodd" clip-rule="evenodd" d="M99.2634 108.303C99.2634 108.303 99.1764 107.684 98.6731 107.502C98.1697 107.321 95.7862 106.479 93.4804 105.024C92.3645 104.318 91.1449 103.534 90.8118 103.321C90.4787 103.108 89.2389 104.111 89.1001 104.244C88.9631 104.379 88.1803 104.568 87.6751 104.559C87.1662 104.548 86.9645 104.474 86.7332 104.231C86.5019 103.985 86.6906 103.062 86.2169 103.052C85.745 103.043 85.336 103.169 85.2305 103.338C85.125 103.508 84.6901 104.906 84.6106 105.488C84.531 106.07 84.3034 107.265 84.3015 107.334C84.3015 107.402 85.8153 107.812 88.9224 108.016C91.7057 108.197 96.6208 108.512 97.5017 108.505C98.7212 108.497 99.2653 108.305 99.2653 108.305" fill="white"/>
<path fill-rule="evenodd" clip-rule="evenodd" d="M52.4365 44.5944C52.4365 44.5944 61.4951 39.3661 65.8402 40.5912C65.583 39.2234 63.2106 37.8112 61.1194 37.6944C58.2455 37.5332 55.8508 39.2419 54.3408 41.453C53.9318 42.0534 52.4365 44.5944 52.4365 44.5944ZM67.8574 52.8139C67.8574 52.8139 56.5966 59.623 56.097 60.1568C55.3105 60.9982 56.0729 63.2111 56.6873 63.2519C57.3017 63.2926 67.2356 57.1488 67.2356 57.1488L67.0801 54.6691L67.8574 52.8158V52.8139Z" fill="#FF3008"/>
<path fill-rule="evenodd" clip-rule="evenodd" d="M57.6293 60.3574L50.6138 61.9772L50.8358 64.0381L57.8384 61.6788L57.6293 60.3574Z" fill="#EBEADE"/>
<path fill-rule="evenodd" clip-rule="evenodd" d="M58.4436 41.9352C58.7582 43.429 65.4332 55.8167 66.7989 58.6245C66.7989 58.6245 68.4053 62.1588 71.4717 60.6391C74.4511 59.1638 71.8103 53.7261 71.8103 53.7261C70.7925 50.6867 68.7976 46.9633 68.8883 47.2525L64.5764 40.1245C64.5764 40.1245 60.074 39.6464 58.4436 41.9352Z" fill="#C6A581"/>
<path fill-rule="evenodd" clip-rule="evenodd" d="M66.1288 39.7278C67.3187 41.5552 69.9077 45.5139 70.696 46.5666C70.1779 48.1216 67.5908 50.366 62.7608 52.7864C59.1577 48.5423 58.349 44.8838 58.2602 42.6895C58.1917 41.0048 58.8949 39.3423 60.2644 38.3601C61.1045 37.7559 62.226 37.3648 63.6046 37.7744C64.6539 38.0858 65.5292 38.8086 66.1288 39.7278Z" fill="#EDB9B6"/>
<path fill-rule="evenodd" clip-rule="evenodd" d="M97.9976 62.0844C98.018 62.6682 97.7885 63.1222 97.4184 63.5114C97.2591 63.6681 97.0665 63.7866 96.855 63.8582C96.6434 63.9298 96.4185 63.9525 96.197 63.9247C95.5141 63.8061 95.1884 64.0415 94.6388 63.0536C94.4482 62.7089 94.3538 62.2252 94.4686 61.8471C94.6184 61.3541 94.8942 60.9445 95.2847 60.6165C95.474 60.4599 95.6963 60.3483 95.9349 60.2902C96.1735 60.2321 96.4222 60.229 96.6622 60.2811C96.9022 60.3332 97.1272 60.4391 97.3204 60.591C97.5136 60.7428 97.6698 60.9366 97.7774 61.1577C97.9199 61.4579 98.0198 61.7711 97.9994 62.0844" fill="#22464C"/>
<path fill-rule="evenodd" clip-rule="evenodd" d="M92.7661 59.5473C92.7661 59.5473 95.1237 58.4965 96.4358 58.6281C97.746 58.7597 101.614 60.9725 101.414 61.7787C101.258 62.4218 99.5818 61.649 99.319 61.3858C99.0543 61.1227 99.1487 62.6795 98.7545 63.0724C98.3604 63.4671 97.5665 63.6988 97.5184 63.4838C97.3981 62.9686 97.5831 61.3191 97.0576 60.9262C96.5338 60.5314 95.5179 60.3016 94.9942 61.3525C94.8996 61.5153 94.8414 61.6968 94.8237 61.8843C94.8059 62.0718 94.8289 62.261 94.8912 62.4387C94.9535 62.6165 95.0535 62.7786 95.1844 62.9139C95.3152 63.0492 95.4739 63.1545 95.6493 63.2225C96.0416 63.3541 97.3092 63.1687 97.485 63.6803C97.6331 64.1176 97.6146 64.1547 97.3462 64.2363C97.0779 64.3159 96.2378 64.2733 95.7474 64.3048C95.2551 64.3382 94.8628 64.5013 94.3058 64.24C93.7487 63.9768 92.3071 62.8277 92.3071 62.8277L92.7661 59.5473Z" fill="#C6A581"/>
<path fill-rule="evenodd" clip-rule="evenodd" d="M67.5595 21.0107C66.8452 19.0517 67.6853 21.1478 61.4322 24.8471C60.1664 25.5977 59.4392 24.5024 58.4954 22.9882C59.1431 24.9861 60.0795 26.9395 60.0795 26.9395C60.0795 26.9395 62.9664 27.6178 64.0027 27.7086C65.039 27.8013 65.9865 27.8161 66.9099 26.7449C67.8352 25.6737 67.7575 25.0102 67.6613 23.2903C67.6243 22.6231 67.665 22.1004 67.776 21.6649C67.7101 21.4442 67.6379 21.2254 67.5595 21.0088" fill="#C7C6B5"/>
<path fill-rule="evenodd" clip-rule="evenodd" d="M69.4563 36.9959L69.4782 37.0287C69.4782 37.0287 69.4782 37.0177 69.4563 36.9959Z" fill="#EDB9B6"/>
</g>
</g>
<defs>
<clipPath id="clip0">
<rect width="154" height="154" fill="white"/>
</clipPath>
<clipPath id="clip1">
<rect width="161" height="139" fill="white" transform="translate(-2 7)"/>
</clipPath>
</defs>
</svg>
